<svg width="101" height="130" viewBox="0 0 101 130" fill="none" xmlns="http://www.w3.org/2000/svg">
<path d="M7.68892 33.8935C7.64974 19.3389 19.4619 7.46298 34.0165 7.4238L84.0923 7.28901C88.991 7.27583 93.0022 11.2112 93.097 16.0934C93.0972 16.1424 93.0973 16.1914 93.0974 16.2404C93.1108 21.199 88.876 25.2382 83.9011 25.2516L34.2009 25.3854C28.7252 25.4001 24.2798 30.006 24.2945 35.4817C24.2956 35.8682 24.3184 36.2546 24.363 36.6463C24.9646 41.7666 29.4816 45.5374 34.6361 45.5235L84.1948 45.3901C86.7476 45.3833 88.8158 43.3039 88.8089 40.7511C88.8087 40.6477 88.8029 40.5388 88.7972 40.4354C88.6273 37.9811 86.4669 36.1308 84.0066 36.1374L38.1764 36.2608C36.9735 36.264 35.9966 35.2924 35.9933 34.0895C35.9901 32.8866 36.9618 31.9096 38.1647 31.9064L84.1582 31.7826C89.0569 31.7694 93.0682 35.7048 93.1629 40.587C93.1631 40.636 93.1632 40.685 93.1633 40.734C93.1767 45.6925 88.942 49.7318 83.9671 49.7452L34.2669 49.879C26.3908 49.9002 19.9613 43.3749 19.9401 35.4934C19.9389 35.0525 19.9595 34.6062 19.9964 34.1597C20.6621 26.6846 27.1187 21.05 34.6192 21.0298L84.1289 20.8966C86.6817 20.8897 88.7499 18.8103 88.743 16.2575C88.7427 16.1541 88.737 16.0453 88.7313 15.9419C88.5614 13.4875 86.4009 11.6372 83.9407 11.6439L34.0282 11.7782C21.874 11.8109 12.0106 21.7275 12.0433 33.8818C12.0438 34.0559 12.0443 34.2356 12.0502 34.4152C12.3656 46.4489 22.5206 55.8979 34.5606 55.8655L84.2227 55.7319C89.1214 55.7187 93.1326 59.6541 93.2274 64.5363C93.2275 64.5853 93.2277 64.6342 93.2278 64.6832C93.2412 69.6418 89.0064 73.6811 84.0315 73.6945L34.1952 73.8286C22.041 73.8613 12.1776 83.7779 12.2104 95.9322C12.2108 96.1063 12.2113 96.286 12.2172 96.4656C12.5327 108.499 22.6876 117.948 34.7276 117.916L84.3897 117.782C86.9425 117.775 89.0107 115.696 89.0038 113.143C89.0035 113.04 88.9978 112.931 88.9921 112.828C88.8222 110.373 86.6617 108.523 84.2015 108.53L34.4251 108.664C26.549 108.685 20.1203 102.426 20.0991 94.5502C20.0989 94.474 20.0986 94.3923 20.0984 94.3161C20.2027 86.5432 26.7341 80.3804 34.5067 80.3594L84.2886 80.2254C89.1873 80.2123 93.1985 84.1477 93.2933 89.0298C93.2935 89.0788 93.2936 89.1278 93.2937 89.1768C93.3071 94.13 89.0724 98.1747 84.0974 98.1881L38.3434 98.3112C37.1405 98.3144 36.1636 97.3428 36.1604 96.1399C36.1571 94.937 37.1288 93.96 38.3317 93.9568L84.3252 93.833C86.878 93.8261 88.9462 91.7468 88.9393 89.194C88.9391 89.0906 88.9333 88.9817 88.9276 88.8783C88.7577 86.4239 86.5973 84.5737 84.137 84.5803L34.3606 84.7143C28.8849 84.729 24.4387 89.0628 24.4535 94.5385C24.4536 94.5983 24.4538 94.6636 24.454 94.7235C24.5719 100.101 29.1336 104.323 34.5113 104.309L84.3531 104.175C89.2518 104.162 93.263 108.097 93.3578 112.979C93.3579 113.028 93.3581 113.077 93.3582 113.126C93.3715 118.079 89.1368 122.124 84.1619 122.137L34.3256 122.271C19.771 122.311 7.89511 110.499 7.85594 95.9439C7.85548 95.7752 7.85502 95.601 7.86 95.4322C8.09326 80.9803 20.1732 69.5119 34.6244 69.473L84.2593 69.3394C86.8121 69.3325 88.8803 67.2532 88.8734 64.7004C88.8731 64.597 88.8674 64.4881 88.8617 64.3847C88.6918 61.9304 86.5313 60.0801 84.0711 60.0867L34.5995 60.2199C20.1428 60.2588 8.00679 48.8556 7.69574 34.4051C7.68983 34.231 7.68937 34.0622 7.68892 33.8935ZM0.612995 33.9125C0.613566 34.1248 0.614152 34.3425 0.620166 34.5548C0.812737 43.4101 4.48732 51.69 10.9594 57.8668C14.1627 60.9172 17.8649 63.2804 21.8753 64.8807C17.8736 66.4972 14.1841 68.8803 10.9973 71.9533C4.55856 78.1594 0.928611 86.459 0.783729 95.3207C0.778857 95.5329 0.779443 95.7507 0.780014 95.9629C0.804056 104.895 4.31021 113.29 10.6575 119.597C16.9993 125.911 25.4127 129.371 34.3447 129.347L84.181 129.213C93.1674 129.189 100.458 121.963 100.434 113.107C100.434 113.02 100.434 112.933 100.433 112.846C100.345 108.198 98.2433 104.018 94.9751 101.131C98.2983 98.177 100.382 93.8986 100.37 89.1578C100.369 89.0707 100.369 88.9836 100.369 88.8965C100.274 84.1014 98.0421 79.802 94.5943 76.9101C98.0971 73.9505 100.317 69.5575 100.304 64.6642C100.303 64.5771 100.303 64.49 100.303 64.4029C100.214 59.7548 98.1129 55.5747 94.8448 52.6878C98.168 49.7342 100.252 45.4612 100.239 40.7149C100.239 40.6278 100.239 40.5407 100.239 40.4536C100.144 35.6586 97.9117 31.3591 94.4639 28.4672C97.9667 25.5077 100.187 21.1146 100.173 16.2213C100.173 16.1342 100.173 16.0471 100.173 15.9601C100.002 7.25707 92.782 0.189637 84.0732 0.213078L33.9975 0.347866C15.5402 0.397547 0.563314 15.4553 0.612995 33.9125Z" fill="#8759F2"/>
<rect x="49.3809" y="98.0671" width="17.3555" height="3.47111" transform="rotate(-90.1542 49.3809 98.0671)" fill="white"/>
<rect width="10.4133" height="3.47111" transform="matrix(0.00269167 0.999996 0.999996 -0.00269167 49.1836 24.978)" fill="white"/>
</svg>
